<svg width="507" height="395" viewBox="0 0 507 395" fill="none" xmlns="http://www.w3.org/2000/svg">
<path d="M165.58 1.39355C148.848 1.60227 135.1 6.34325 125.457 15.9863C115.814 25.6293 111.073 39.3762 110.864 56.1084C110.655 72.8472 114.987 92.5053 123.412 113.833C140.262 156.485 173.414 205.632 218.904 251.122C264.394 296.612 313.541 329.765 356.193 346.614C377.521 355.04 397.179 359.371 413.918 359.162C430.65 358.953 444.397 354.212 454.04 344.569C463.683 334.926 468.424 321.179 468.633 304.446C468.842 287.708 464.51 268.05 456.085 246.723C439.236 204.07 406.083 154.924 360.593 109.434C315.103 63.9436 265.956 30.7908 223.304 13.9414C201.976 5.51617 182.319 1.18485 165.58 1.39355Z" stroke="#FFFEFE" stroke-width="2"/>
<path d="M150.294 11.0713C133.485 11.2223 119.92 15.8576 110.811 25.3926C101.703 34.9261 97.8417 48.5263 98.7297 65.0342C99.6179 81.5447 105.256 100.919 115.091 121.92C134.76 163.919 171.167 212.324 219.663 257.161C268.159 301.998 319.528 334.746 363.361 351.456C385.278 359.812 405.287 364.148 422.098 363.997C438.908 363.846 452.472 359.211 461.581 349.676C470.69 340.142 474.55 326.542 473.662 310.034C472.774 293.524 467.136 274.149 457.301 253.148C437.632 211.15 401.225 162.744 352.729 117.907C304.233 73.0704 252.865 40.3225 209.032 23.6123C187.115 15.2567 167.105 10.9204 150.294 11.0713Z" stroke="#FFFEFE"/>
<path d="M134.661 21.25C117.861 21.342 104.622 25.8459 96.1636 35.1533C87.7082 44.4575 84.7518 57.7698 86.7378 73.9668C88.724 90.1648 95.6494 109.19 106.879 129.826C129.338 171.094 168.956 218.702 220.421 262.85C271.887 306.997 325.421 339.295 370.356 355.835C392.825 364.106 413.119 368.427 429.917 368.335C446.716 368.243 459.954 363.739 468.413 354.432C476.868 345.128 479.825 331.816 477.839 315.619C475.853 299.421 468.928 280.396 457.698 259.76C435.24 218.492 395.621 170.884 344.156 126.736C292.69 82.5893 239.156 50.2901 194.221 33.75C171.752 25.4794 151.458 21.1581 134.661 21.25Z" stroke="#FFFEFE"/>
<path d="M102.499 41.6123C85.7181 41.5863 73.1349 45.8286 65.9788 54.6758C58.8283 63.5162 57.6674 76.2507 61.8518 91.834C66.0345 107.411 75.5363 125.74 89.5579 145.646C117.597 185.454 163.64 231.466 221.045 274.232C278.45 316.998 336.315 348.396 383.454 364.596C407.027 372.696 427.891 376.988 444.66 377.014C461.442 377.04 474.025 372.797 481.181 363.95C488.331 355.11 489.492 342.375 485.308 326.792C481.125 311.215 471.622 292.886 457.601 272.979C429.561 233.172 383.519 187.16 326.115 144.394C268.71 101.627 210.845 70.2285 163.705 54.0293C140.133 45.9289 119.269 41.6384 102.499 41.6123Z" stroke="#FFFEFE"/>
<path d="M86.0435 51.7949C69.2692 51.7098 57.0168 55.8223 50.5112 64.4365C44.0118 73.0428 43.7444 85.4896 49.0308 100.771C54.3127 116.038 65.1041 134.021 80.522 153.562C111.353 192.638 160.608 237.852 220.982 279.928C281.356 322.003 341.388 352.95 389.629 368.979C413.753 376.994 434.902 381.269 451.658 381.354C468.432 381.44 480.683 377.327 487.189 368.713C493.688 360.107 493.957 347.66 488.67 332.379C483.388 317.111 472.597 299.13 457.179 279.589C426.348 240.513 377.093 195.298 316.718 153.223C256.344 111.147 196.313 80.1994 148.072 64.1709C123.948 56.1557 102.8 51.88 86.0435 51.7949Z" stroke="#FFFEFE"/>
<path d="M69.377 61.9795C52.6082 61.8353 40.6907 65.8186 34.835 74.1973C28.9849 82.5679 29.6062 94.728 35.9971 109.709C42.379 124.669 54.4601 142.304 71.2744 161.479C104.898 199.825 157.366 244.241 220.71 285.625C284.054 327.009 346.251 357.506 395.594 373.363C420.268 381.293 441.702 385.553 458.444 385.697C475.213 385.842 487.131 381.858 492.986 373.479C498.836 365.109 498.215 352.948 491.824 337.967C485.442 323.007 473.361 305.373 456.547 286.197C422.923 247.852 370.456 203.436 307.111 162.052C243.767 120.668 181.57 90.171 132.228 74.3135C107.553 66.3837 86.1195 62.1235 69.377 61.9795Z" stroke="#FFFEFE"/>
<path d="M52.5247 72.165C35.7597 71.9616 24.1801 75.8162 18.9729 83.9561C13.7695 92.0905 15.2759 103.968 22.7747 118.651C30.2575 133.304 43.6303 150.591 61.8411 169.4C98.2573 207.014 153.937 250.632 220.251 291.324C286.565 332.017 350.928 362.063 401.372 377.749C426.598 385.593 448.316 389.838 465.045 390.041C481.81 390.244 493.39 386.39 498.597 378.25C503.8 370.116 502.294 358.238 494.795 343.555C487.312 328.903 473.94 311.615 455.729 292.806C419.312 255.192 363.632 211.574 297.319 170.882C231.005 130.189 166.642 100.144 116.198 84.457C90.9719 76.6127 69.2536 72.3681 52.5247 72.165Z" stroke="#FFFEFE"/>
<path d="M35.5083 82.3516C18.7443 82.0887 7.50687 85.8169 2.94678 93.7148C-1.61318 101.613 0.776589 113.209 9.38623 127.596C17.971 141.941 32.636 158.881 52.2437 177.325C91.4531 214.207 150.346 257.025 219.629 297.025C288.913 337.026 355.44 366.62 406.986 382.136C432.763 389.895 454.766 394.125 471.481 394.387C488.245 394.65 499.482 390.921 504.042 383.023C508.602 375.125 506.213 363.529 497.603 349.143C489.018 334.798 474.353 317.857 454.746 299.413C415.536 262.531 356.643 219.714 287.36 179.713C218.077 139.712 151.549 110.118 100.003 94.6025C74.2268 86.8437 52.2237 82.6137 35.5083 82.3516Z" stroke="#FFFEFE"/>
</svg>
