<svg width="508" height="395" viewBox="0 0 508 395" fill="none" xmlns="http://www.w3.org/2000/svg">
<path d="M341.629 1.39355C358.361 1.60227 372.109 6.34325 381.752 15.9863C391.395 25.6293 396.136 39.3762 396.344 56.1084C396.553 72.8472 392.222 92.5053 383.797 113.833C366.947 156.485 333.794 205.632 288.304 251.122C242.814 296.612 193.668 329.765 151.015 346.614C129.688 355.04 110.03 359.371 93.2908 359.162C76.5586 358.953 62.8117 354.212 53.1687 344.569C43.5256 334.926 38.7846 321.179 38.5759 304.446C38.3672 287.708 42.6985 268.05 51.1238 246.723C67.9732 204.07 101.126 154.924 146.616 109.434C192.106 63.9436 241.253 30.7908 283.905 13.9414C305.233 5.51617 324.89 1.18485 341.629 1.39355Z" stroke="#FFFEFE" stroke-width="2"/>
<path d="M356.915 11.0713C373.724 11.2223 387.288 15.8576 396.398 25.3926C405.506 34.9261 409.367 48.5263 408.479 65.0342C407.591 81.5447 401.953 100.919 392.118 121.92C372.449 163.919 336.041 212.324 287.545 257.161C239.05 301.998 187.681 334.746 143.848 351.456C121.931 359.812 101.921 364.148 85.1108 363.997C68.3012 363.846 54.7371 359.211 45.6274 349.676C36.5192 340.142 32.6583 326.542 33.5464 310.034C34.4346 293.524 40.0728 274.149 49.9077 253.148C69.5764 211.15 105.984 162.744 154.48 117.907C202.976 73.0704 254.344 40.3225 298.176 23.6123C320.094 15.2567 340.104 10.9204 356.915 11.0713Z" stroke="#FFFEFE"/>
<path d="M372.548 21.25C389.347 21.342 402.587 25.8459 411.045 35.1533C419.501 44.4575 422.457 57.7698 420.471 73.9668C418.485 90.1648 411.559 109.19 400.329 129.826C377.871 171.094 338.253 218.702 286.787 262.85C235.322 306.997 181.788 339.295 136.853 355.835C114.384 364.106 94.0892 368.427 77.2922 368.335C60.4932 368.243 47.2544 363.739 38.7961 354.432C30.3408 345.128 27.3835 331.816 29.3694 315.619C31.3555 299.421 38.281 280.396 49.511 259.76C71.9691 218.492 111.587 170.884 163.053 126.736C214.518 82.5893 268.052 50.2901 312.988 33.75C335.457 25.4794 355.751 21.1581 372.548 21.25Z" stroke="#FFFEFE"/>
<path d="M404.709 41.6123C421.491 41.5863 434.074 45.8286 441.23 54.6758C448.38 63.5162 449.541 76.2507 445.357 91.834C441.174 107.411 431.672 125.74 417.651 145.646C389.611 185.454 343.569 231.466 286.164 274.232C228.759 316.998 170.894 348.396 123.754 364.596C100.182 372.696 79.3182 376.988 62.5483 377.014C45.7672 377.04 33.1839 372.797 26.0278 363.95C18.8774 355.11 17.7165 342.375 21.9009 326.792C26.0836 311.215 35.5863 292.886 49.6079 272.979C77.6474 233.172 123.689 187.16 181.094 144.394C238.499 101.627 296.364 70.2285 343.503 54.0293C367.075 45.9289 387.94 41.6384 404.709 41.6123Z" stroke="#FFFEFE"/>
<path d="M421.165 51.7949C437.939 51.7098 450.192 55.8223 456.698 64.4365C463.197 73.0428 463.464 85.4896 458.178 100.771C452.896 116.038 442.105 134.021 426.687 153.562C395.856 192.638 346.601 237.852 286.227 279.928C225.853 322.003 165.821 352.95 117.579 368.979C93.4559 376.994 72.3072 381.269 55.551 381.354C38.7769 381.44 26.5253 377.327 20.0198 368.713C13.5204 360.107 13.2519 347.66 18.5383 332.379C23.8202 317.111 34.6119 299.13 50.0295 279.589C80.8608 240.513 130.116 195.298 190.49 153.223C250.865 111.147 310.896 80.1994 359.137 64.1709C383.26 56.1557 404.409 51.88 421.165 51.7949Z" stroke="#FFFEFE"/>
<path d="M437.832 61.9795C454.601 61.8353 466.518 65.8186 472.374 74.1973C478.224 82.5679 477.603 94.728 471.212 109.709C464.83 124.669 452.749 142.304 435.934 161.479C402.311 199.825 349.843 244.241 286.499 285.625C223.155 327.009 160.958 357.506 111.615 373.363C86.9404 381.293 65.507 385.553 48.7644 385.697C31.9956 385.842 20.0782 381.858 14.2224 373.479C8.37226 365.109 8.99351 352.948 15.3845 337.967C21.7665 323.007 33.8477 305.373 50.6619 286.197C84.2854 247.852 136.753 203.436 200.097 162.052C263.441 120.668 325.638 90.171 374.981 74.3135C399.656 66.3837 421.089 62.1235 437.832 61.9795Z" stroke="#FFFEFE"/>
<path d="M454.684 72.165C471.449 71.9616 483.029 75.8162 488.236 83.9561C493.439 92.0905 491.933 103.968 484.434 118.651C476.951 133.304 463.578 150.591 445.368 169.4C408.951 207.014 353.271 250.632 286.958 291.324C220.644 332.017 156.281 362.063 105.836 377.749C80.6108 385.593 58.8925 389.838 42.1636 390.041C25.3987 390.244 13.819 386.39 8.61182 378.25C3.4084 370.116 4.91483 358.238 12.4136 343.555C19.8964 328.903 33.2692 311.615 51.48 292.806C87.8963 255.192 143.576 211.574 209.89 170.882C276.204 130.189 340.567 100.144 391.011 84.457C416.237 76.6127 437.955 72.3681 454.684 72.165Z" stroke="#FFFEFE"/>
<path d="M471.7 82.3516C488.464 82.0887 499.702 85.8169 504.262 93.7148C508.822 101.613 506.432 113.209 497.823 127.596C489.238 141.941 474.573 158.881 454.965 177.325C415.756 214.207 356.863 257.025 287.579 297.025C218.296 337.026 151.769 366.62 100.223 382.136C74.4462 389.895 52.4432 394.125 35.7278 394.387C18.9638 394.65 7.72635 390.921 3.16626 383.023C-1.39369 375.125 0.996103 363.529 9.60571 349.143C18.1904 334.798 32.8554 317.857 52.4631 299.413C91.6726 262.531 150.566 219.714 219.849 179.713C289.132 139.712 355.66 110.118 407.205 94.6025C432.982 86.8437 454.985 82.6137 471.7 82.3516Z" stroke="#FFFEFE"/>
</svg>
