<svg width="717" height="717" viewBox="0 0 717 717" fill="none" xmlns="http://www.w3.org/2000/svg">
<g clip-path="url(#clip0_83_47)">
<rect width="716" height="716" transform="translate(0.955566 0.458008)" fill="white"/>
<rect x="0.955566" y="-1.16162" width="716.151" height="717.777" fill="black"/>
<g clip-path="url(#paint0_diamond_83_47_clip_path)" data-figma-skip-parse="true"><g transform="matrix(-0.423487 -4.09307e-08 4.65001e-08 -0.557307 406.144 359.275)"><rect x="0" y="0" width="736.653" height="648.541" fill="url(#paint0_diamond_83_47)" opacity="1" shape-rendering="crispEdges"/><rect x="0" y="0" width="736.653" height="648.541" transform="scale(1 -1)" fill="url(#paint0_diamond_83_47)" opacity="1" shape-rendering="crispEdges"/><rect x="0" y="0" width="736.653" height="648.541" transform="scale(-1 1)" fill="url(#paint0_diamond_83_47)" opacity="1" shape-rendering="crispEdges"/><rect x="0" y="0" width="736.653" height="648.541" transform="scale(-1)" fill="url(#paint0_diamond_83_47)" opacity="1" shape-rendering="crispEdges"/></g></g><rect x="717.106" y="-1.16162" width="720.873" height="621.925" transform="rotate(90 717.106 -1.16162)" data-figma-gradient-fill="{&#34;type&#34;:&#34;GRADIENT_DIAMOND&#34;,&#34;stops&#34;:[{&#34;color&#34;:{&#34;r&#34;:0.54117649793624878,&#34;g&#34;:0.64313727617263794,&#34;b&#34;:1.0,&#34;a&#34;:1.0},&#34;position&#34;:0.0},{&#34;color&#34;:{&#34;r&#34;:0.0,&#34;g&#34;:0.0,&#34;b&#34;:0.0,&#34;a&#34;:1.0},&#34;position&#34;:0.85096156597137451}],&#34;stopsVar&#34;:[{&#34;color&#34;:{&#34;r&#34;:0.54117649793624878,&#34;g&#34;:0.64313727617263794,&#34;b&#34;:1.0,&#34;a&#34;:1.0},&#34;position&#34;:0.0},{&#34;color&#34;:{&#34;r&#34;:0.0,&#34;g&#34;:0.0,&#34;b&#34;:0.0,&#34;a&#34;:1.0},&#34;position&#34;:0.85096156597137451}],&#34;transform&#34;:{&#34;m00&#34;:-846.97302246093750,&#34;m01&#34;:9.3000242486596107e-05,&#34;m02&#34;:829.63000488281250,&#34;m10&#34;:-8.1861442595254630e-05,&#34;m11&#34;:-1114.6131591796875,&#34;m12&#34;:916.5812988281250},&#34;opacity&#34;:1.0,&#34;blendMode&#34;:&#34;NORMAL&#34;,&#34;visible&#34;:true}"/>
<g clip-path="url(#paint1_diamond_83_47_clip_path)" data-figma-skip-parse="true"><g transform="matrix(-0.137316 -1.33637e-08 1.54586e-08 -0.185994 289.697 598.864)"><rect x="0" y="0" width="741.574" height="652.124" fill="url(#paint1_diamond_83_47)" opacity="1" shape-rendering="crispEdges"/><rect x="0" y="0" width="741.574" height="652.124" transform="scale(1 -1)" fill="url(#paint1_diamond_83_47)" opacity="1" shape-rendering="crispEdges"/><rect x="0" y="0" width="741.574" height="652.124" transform="scale(-1 1)" fill="url(#paint1_diamond_83_47)" opacity="1" shape-rendering="crispEdges"/><rect x="0" y="0" width="741.574" height="652.124" transform="scale(-1)" fill="url(#paint1_diamond_83_47)" opacity="1" shape-rendering="crispEdges"/></g></g><rect x="390.527" y="478.573" width="240.582" height="201.66" transform="rotate(90 390.527 478.573)" data-figma-gradient-fill="{&#34;type&#34;:&#34;GRADIENT_DIAMOND&#34;,&#34;stops&#34;:[{&#34;color&#34;:{&#34;r&#34;:0.54117649793624878,&#34;g&#34;:0.64313727617263794,&#34;b&#34;:1.0,&#34;a&#34;:1.0},&#34;position&#34;:0.0},{&#34;color&#34;:{&#34;r&#34;:0.0,&#34;g&#34;:0.0,&#34;b&#34;:0.0,&#34;a&#34;:1.0},&#34;position&#34;:0.85096156597137451}],&#34;stopsVar&#34;:[{&#34;color&#34;:{&#34;r&#34;:0.54117649793624878,&#34;g&#34;:0.64313727617263794,&#34;b&#34;:1.0,&#34;a&#34;:1.0},&#34;position&#34;:0.0},{&#34;color&#34;:{&#34;r&#34;:0.0,&#34;g&#34;:0.0,&#34;b&#34;:0.0,&#34;a&#34;:1.0},&#34;position&#34;:0.85096156597137451}],&#34;transform&#34;:{&#34;m00&#34;:-274.63287353515625,&#34;m01&#34;:3.0917180993128568e-05,&#34;m02&#34;:427.01351928710938,&#34;m10&#34;:-2.6727462682174519e-05,&#34;m11&#34;:-371.98715209960938,&#34;m12&#34;:784.85760498046875},&#34;opacity&#34;:1.0,&#34;blendMode&#34;:&#34;NORMAL&#34;,&#34;visible&#34;:true}"/>
<g clip-path="url(#paint2_diamond_83_47_clip_path)" data-figma-skip-parse="true"><g transform="matrix(-0.137316 -1.33637e-08 1.54586e-08 -0.185994 616.276 598.864)"><rect x="0" y="0" width="741.574" height="652.124" fill="url(#paint2_diamond_83_47)" opacity="1" shape-rendering="crispEdges"/><rect x="0" y="0" width="741.574" height="652.124" transform="scale(1 -1)" fill="url(#paint2_diamond_83_47)" opacity="1" shape-rendering="crispEdges"/><rect x="0" y="0" width="741.574" height="652.124" transform="scale(-1 1)" fill="url(#paint2_diamond_83_47)" opacity="1" shape-rendering="crispEdges"/><rect x="0" y="0" width="741.574" height="652.124" transform="scale(-1)" fill="url(#paint2_diamond_83_47)" opacity="1" shape-rendering="crispEdges"/></g></g><rect x="717.106" y="478.573" width="240.582" height="201.66" transform="rotate(90 717.106 478.573)" data-figma-gradient-fill="{&#34;type&#34;:&#34;GRADIENT_DIAMOND&#34;,&#34;stops&#34;:[{&#34;color&#34;:{&#34;r&#34;:0.54117649793624878,&#34;g&#34;:0.64313727617263794,&#34;b&#34;:1.0,&#34;a&#34;:1.0},&#34;position&#34;:0.0},{&#34;color&#34;:{&#34;r&#34;:0.0,&#34;g&#34;:0.0,&#34;b&#34;:0.0,&#34;a&#34;:1.0},&#34;position&#34;:0.85096156597137451}],&#34;stopsVar&#34;:[{&#34;color&#34;:{&#34;r&#34;:0.54117649793624878,&#34;g&#34;:0.64313727617263794,&#34;b&#34;:1.0,&#34;a&#34;:1.0},&#34;position&#34;:0.0},{&#34;color&#34;:{&#34;r&#34;:0.0,&#34;g&#34;:0.0,&#34;b&#34;:0.0,&#34;a&#34;:1.0},&#34;position&#34;:0.85096156597137451}],&#34;transform&#34;:{&#34;m00&#34;:-274.63287353515625,&#34;m01&#34;:3.0917180993128568e-05,&#34;m02&#34;:753.59210205078125,&#34;m10&#34;:-2.6727462682174519e-05,&#34;m11&#34;:-371.98715209960938,&#34;m12&#34;:784.85760498046875},&#34;opacity&#34;:1.0,&#34;blendMode&#34;:&#34;NORMAL&#34;,&#34;visible&#34;:true}"/>
<g filter="url(#filter0_n_83_47)">
<ellipse cx="453.071" cy="304.322" rx="119.78" ry="120.052" fill="#FFFEFE"/>
</g>
<path d="M276.573 109.218C293.289 109.218 306.845 122.801 306.845 139.561C306.845 156.321 293.289 169.903 276.573 169.903C259.856 169.903 246.301 156.32 246.301 139.561C246.301 122.801 259.856 109.218 276.573 109.218Z" stroke="#FFFEFE" stroke-width="2"/>
<path d="M400.747 66.3706C405.837 66.3707 409.967 70.5071 409.967 75.6138C409.967 80.7202 405.836 84.8558 400.747 84.856C395.658 84.856 391.528 80.7203 391.527 75.6138C391.527 70.507 395.657 66.3706 400.747 66.3706Z" stroke="#FFFEFE" stroke-width="2"/>
<path d="M572.852 207.114C585.153 207.114 595.13 217.11 595.13 229.446C595.13 241.781 585.153 251.777 572.852 251.777C560.55 251.777 550.572 241.781 550.572 229.446C550.572 217.11 560.549 207.114 572.852 207.114Z" stroke="#FFFEFE" stroke-width="2"/>
<g filter="url(#filter1_dddddd_83_47)">
<ellipse cx="616.276" cy="104.11" rx="28.4325" ry="28.4971" fill="#FFFEFE"/>
</g>
<g filter="url(#filter2_dddddd_83_47)">
<ellipse cx="494.41" cy="125.194" rx="7.39635" ry="7.41314" fill="#FFFEFE"/>
</g>
<path d="M353.966 537.455C361.525 477.309 348.516 410.696 342.761 402.646C350.684 397.464 359.991 399.076 370.473 406.276C391.796 420.923 401.891 534.652 401.891 534.652C401.891 534.652 485.533 499.11 501.432 487.962C517.33 476.813 530.514 446.178 542.511 429.876C547.095 405.329 558.213 380.926 558.213 380.926C573.972 352.753 588.009 358.552 588.009 358.552C586.84 364.813 569.137 434.87 569.137 434.87C569.137 434.87 546.178 489.808 536.405 505.862C536.405 505.862 549.362 502.541 593.467 439.434C637.573 376.327 659.718 387.776 659.718 387.776C644.346 416.651 577.66 512.921 561.76 534.56L618.079 479.784C659.702 413.258 681.903 429.211 681.903 429.211L636.001 499.072C636.001 499.072 592.338 549.027 583.533 559.594C591.202 552.991 605.536 543.155 621.623 527.88C637.711 512.604 652.956 502.252 665.371 504.581C654.985 520.254 625.879 560.29 592.538 595.046C559.197 629.801 518.085 664.139 494.22 677.818L494.22 719.459H379.705C379.705 685.203 379.188 656.242 379.188 656.242C379.188 656.242 343.228 622.898 353.966 537.455Z" fill="#FFFEFE"/>
<path d="M228.452 351.839C221.099 336.864 222.401 293.908 217.454 226.305C208.527 104.332 87.272 75.7052 1.08105 70.3037L1.08126 661.582L171.519 661.582C223.772 661.582 216.618 624.57 217.454 563.519C217.87 533.101 217.454 475.547 217.454 475.547H287.801C287.801 475.547 280.654 458.149 228.452 351.839Z" fill="#FFFEFE"/>
<path d="M218.014 528.858H153.131" stroke="black"/>
<path d="M172.859 292.231L87.6017 337.726L172.859 366.129" stroke="black" stroke-linejoin="round"/>
<path d="M158.421 300.763C165.722 300.736 171.676 314.159 171.718 330.744C171.76 347.329 165.876 360.795 158.575 360.823C151.274 360.85 145.321 347.427 145.279 330.842C145.236 314.258 151.12 300.791 158.421 300.763ZM159.971 318.662C157.623 318.67 155.734 324.107 155.751 330.803C155.768 337.499 157.685 342.921 160.032 342.913C162.38 342.904 164.27 337.468 164.253 330.771C164.236 324.075 162.319 318.653 159.971 318.662Z" fill="black"/>
<rect x="1.08105" y="661.582" width="81.5421" height="55.0334" fill="#FFFEFE"/>
</g>
<defs>
<clipPath id="paint0_diamond_83_47_clip_path"><rect x="717.106" y="-1.16162" width="720.873" height="621.925" transform="rotate(90 717.106 -1.16162)"/></clipPath><clipPath id="paint1_diamond_83_47_clip_path"><rect x="390.527" y="478.573" width="240.582" height="201.66" transform="rotate(90 390.527 478.573)"/></clipPath><clipPath id="paint2_diamond_83_47_clip_path"><rect x="717.106" y="478.573" width="240.582" height="201.66" transform="rotate(90 717.106 478.573)"/></clipPath><filter id="filter0_n_83_47" x="333.291" y="184.27" width="239.56" height="240.104" filterUnits="userSpaceOnUse" color-interpolation-filters="sRGB">
<feFlood flood-opacity="0" result="BackgroundImageFix"/>
<feBlend mode="normal" in="SourceGraphic" in2="BackgroundImageFix" result="shape"/>
<feTurbulence type="fractalNoise" baseFrequency="0.016217969357967377 0.016217969357967377" stitchTiles="stitch" numOctaves="3" result="noise" seed="0" />
<feColorMatrix in="noise" type="luminanceToAlpha" result="alphaNoise" />
<feComponentTransfer in="alphaNoise" result="coloredNoise1">
<feFuncA type="discrete" tableValues="1 1 1 1 1 1 1 1 1 1 1 1 1 1 1 1 1 1 1 1 1 1 1 1 1 1 1 1 1 1 1 1 1 1 1 1 1 1 1 1 1 1 1 1 1 1 1 1 1 1 1 0 0 0 0 0 0 0 0 0 0 0 0 0 0 0 0 0 0 0 0 0 0 0 0 0 0 0 0 0 0 0 0 0 0 0 0 0 0 0 0 0 0 0 0 0 0 0 0 0 "/>
</feComponentTransfer>
<feComposite operator="in" in2="shape" in="coloredNoise1" result="noise1Clipped" />
<feFlood flood-color="rgba(0, 0, 0, 0.25)" result="color1Flood" />
<feComposite operator="in" in2="noise1Clipped" in="color1Flood" result="color1" />
<feMerge result="effect1_noise_83_47">
<feMergeNode in="shape" />
<feMergeNode in="color1" />
</feMerge>
</filter>
<filter id="filter1_dddddd_83_47" x="559.324" y="47.0937" width="113.904" height="114.033" filterUnits="userSpaceOnUse" color-interpolation-filters="sRGB">
<feFlood flood-opacity="0" result="BackgroundImageFix"/>
<feColorMatrix in="SourceAlpha" type="matrix" values="0 0 0 0 0 0 0 0 0 0 0 0 0 0 0 0 0 0 127 0" result="hardAlpha"/>
<feOffset/>
<feGaussianBlur stdDeviation="0.339519"/>
<feColorMatrix type="matrix" values="0 0 0 0 1 0 0 0 0 0.996078 0 0 0 0 0.996078 0 0 0 1 0"/>
<feBlend mode="normal" in2="BackgroundImageFix" result="effect1_dropShadow_83_47"/>
<feColorMatrix in="SourceAlpha" type="matrix" values="0 0 0 0 0 0 0 0 0 0 0 0 0 0 0 0 0 0 127 0" result="hardAlpha"/>
<feOffset/>
<feGaussianBlur stdDeviation="0.679037"/>
<feColorMatrix type="matrix" values="0 0 0 0 1 0 0 0 0 0.996078 0 0 0 0 0.996078 0 0 0 1 0"/>
<feBlend mode="normal" in2="effect1_dropShadow_83_47" result="effect2_dropShadow_83_47"/>
<feColorMatrix in="SourceAlpha" type="matrix" values="0 0 0 0 0 0 0 0 0 0 0 0 0 0 0 0 0 0 127 0" result="hardAlpha"/>
<feOffset/>
<feGaussianBlur stdDeviation="2.37663"/>
<feColorMatrix type="matrix" values="0 0 0 0 1 0 0 0 0 0.996078 0 0 0 0 0.996078 0 0 0 1 0"/>
<feBlend mode="normal" in2="effect2_dropShadow_83_47" result="effect3_dropShadow_83_47"/>
<feColorMatrix in="SourceAlpha" type="matrix" values="0 0 0 0 0 0 0 0 0 0 0 0 0 0 0 0 0 0 127 0" result="hardAlpha"/>
<feOffset/>
<feGaussianBlur stdDeviation="4.75326"/>
<feColorMatrix type="matrix" values="0 0 0 0 1 0 0 0 0 0.996078 0 0 0 0 0.996078 0 0 0 1 0"/>
<feBlend mode="normal" in2="effect3_dropShadow_83_47" result="effect4_dropShadow_83_47"/>
<feColorMatrix in="SourceAlpha" type="matrix" values="0 0 0 0 0 0 0 0 0 0 0 0 0 0 0 0 0 0 127 0" result="hardAlpha"/>
<feOffset/>
<feGaussianBlur stdDeviation="8.14845"/>
<feColorMatrix type="matrix" values="0 0 0 0 1 0 0 0 0 0.996078 0 0 0 0 0.996078 0 0 0 1 0"/>
<feBlend mode="normal" in2="effect4_dropShadow_83_47" result="effect5_dropShadow_83_47"/>
<feColorMatrix in="SourceAlpha" type="matrix" values="0 0 0 0 0 0 0 0 0 0 0 0 0 0 0 0 0 0 127 0" result="hardAlpha"/>
<feOffset/>
<feGaussianBlur stdDeviation="14.2598"/>
<feColorMatrix type="matrix" values="0 0 0 0 1 0 0 0 0 0.996078 0 0 0 0 0.996078 0 0 0 1 0"/>
<feBlend mode="normal" in2="effect5_dropShadow_83_47" result="effect6_dropShadow_83_47"/>
<feBlend mode="normal" in="SourceGraphic" in2="effect6_dropShadow_83_47" result="shape"/>
</filter>
<filter id="filter2_dddddd_83_47" x="458.494" y="89.2617" width="71.8316" height="71.8653" filterUnits="userSpaceOnUse" color-interpolation-filters="sRGB">
<feFlood flood-opacity="0" result="BackgroundImageFix"/>
<feColorMatrix in="SourceAlpha" type="matrix" values="0 0 0 0 0 0 0 0 0 0 0 0 0 0 0 0 0 0 127 0" result="hardAlpha"/>
<feOffset/>
<feGaussianBlur stdDeviation="0.339519"/>
<feColorMatrix type="matrix" values="0 0 0 0 1 0 0 0 0 0.996078 0 0 0 0 0.996078 0 0 0 1 0"/>
<feBlend mode="normal" in2="BackgroundImageFix" result="effect1_dropShadow_83_47"/>
<feColorMatrix in="SourceAlpha" type="matrix" values="0 0 0 0 0 0 0 0 0 0 0 0 0 0 0 0 0 0 127 0" result="hardAlpha"/>
<feOffset/>
<feGaussianBlur stdDeviation="0.679037"/>
<feColorMatrix type="matrix" values="0 0 0 0 1 0 0 0 0 0.996078 0 0 0 0 0.996078 0 0 0 1 0"/>
<feBlend mode="normal" in2="effect1_dropShadow_83_47" result="effect2_dropShadow_83_47"/>
<feColorMatrix in="SourceAlpha" type="matrix" values="0 0 0 0 0 0 0 0 0 0 0 0 0 0 0 0 0 0 127 0" result="hardAlpha"/>
<feOffset/>
<feGaussianBlur stdDeviation="2.37663"/>
<feColorMatrix type="matrix" values="0 0 0 0 1 0 0 0 0 0.996078 0 0 0 0 0.996078 0 0 0 1 0"/>
<feBlend mode="normal" in2="effect2_dropShadow_83_47" result="effect3_dropShadow_83_47"/>
<feColorMatrix in="SourceAlpha" type="matrix" values="0 0 0 0 0 0 0 0 0 0 0 0 0 0 0 0 0 0 127 0" result="hardAlpha"/>
<feOffset/>
<feGaussianBlur stdDeviation="4.75326"/>
<feColorMatrix type="matrix" values="0 0 0 0 1 0 0 0 0 0.996078 0 0 0 0 0.996078 0 0 0 1 0"/>
<feBlend mode="normal" in2="effect3_dropShadow_83_47" result="effect4_dropShadow_83_47"/>
<feColorMatrix in="SourceAlpha" type="matrix" values="0 0 0 0 0 0 0 0 0 0 0 0 0 0 0 0 0 0 127 0" result="hardAlpha"/>
<feOffset/>
<feGaussianBlur stdDeviation="8.14845"/>
<feColorMatrix type="matrix" values="0 0 0 0 1 0 0 0 0 0.996078 0 0 0 0 0.996078 0 0 0 1 0"/>
<feBlend mode="normal" in2="effect4_dropShadow_83_47" result="effect5_dropShadow_83_47"/>
<feColorMatrix in="SourceAlpha" type="matrix" values="0 0 0 0 0 0 0 0 0 0 0 0 0 0 0 0 0 0 127 0" result="hardAlpha"/>
<feOffset/>
<feGaussianBlur stdDeviation="14.2598"/>
<feColorMatrix type="matrix" values="0 0 0 0 1 0 0 0 0 0.996078 0 0 0 0 0.996078 0 0 0 1 0"/>
<feBlend mode="normal" in2="effect5_dropShadow_83_47" result="effect6_dropShadow_83_47"/>
<feBlend mode="normal" in="SourceGraphic" in2="effect6_dropShadow_83_47" result="shape"/>
</filter>
<linearGradient id="paint0_diamond_83_47" x1="0" y1="0" x2="500" y2="500" gradientUnits="userSpaceOnUse">
<stop stop-color="#8AA4FF"/>
<stop offset="0.850962"/>
</linearGradient>
<linearGradient id="paint1_diamond_83_47" x1="0" y1="0" x2="500" y2="500" gradientUnits="userSpaceOnUse">
<stop stop-color="#8AA4FF"/>
<stop offset="0.850962"/>
</linearGradient>
<linearGradient id="paint2_diamond_83_47" x1="0" y1="0" x2="500" y2="500" gradientUnits="userSpaceOnUse">
<stop stop-color="#8AA4FF"/>
<stop offset="0.850962"/>
</linearGradient>
<clipPath id="clip0_83_47">
<rect width="716" height="716" fill="white" transform="translate(0.955566 0.458008)"/>
</clipPath>
</defs>
</svg>
