<svg width="61" height="222" viewBox="0 0 61 222" fill="none" xmlns="http://www.w3.org/2000/svg">
<g clip-path="url(#clip0_78_220)">
<mask id="mask0_78_220" style="mask-type:alpha" maskUnits="userSpaceOnUse" x="-496" y="-44" width="557" height="337">
<rect x="-496" y="-44" width="556.702" height="336.96" fill="#D9D9D9"/>
</mask>
<g mask="url(#mask0_78_220)">
<path d="M2.49573 198.475C2.20882 195.536 3.78791 192.391 7.28363 189.074C10.7713 185.764 16.0908 182.359 23.0812 178.915C37.057 172.029 57.6001 165.042 83.2099 158.355C134.422 144.983 205.807 132.832 285.222 125.079C364.637 117.326 437.023 115.441 489.855 118.656C516.274 120.264 537.781 123.146 552.825 127.198C560.349 129.225 566.227 131.538 570.289 134.11C574.36 136.689 576.518 139.469 576.805 142.408C577.091 145.347 575.512 148.492 572.017 151.809C568.529 155.119 563.209 158.524 556.219 161.968C542.243 168.853 521.7 175.841 496.09 182.528C444.878 195.901 373.494 208.05 294.079 215.803C214.663 223.556 142.277 225.442 89.4454 222.227C63.0258 220.619 41.5192 217.736 26.4756 213.684C18.9512 211.657 13.0734 209.345 9.01151 206.773C4.94015 204.194 2.78276 201.414 2.49573 198.475Z" stroke="#FFFEFE"/>
<path d="M2.49573 150.53C2.20882 147.591 3.78791 144.446 7.28363 141.128C10.7713 137.819 16.0908 134.413 23.0812 130.969C37.057 124.084 57.6001 117.097 83.2099 110.41C134.422 97.0373 205.807 84.8867 285.222 77.1338C364.637 69.3809 437.023 67.4958 489.855 70.7109C516.274 72.3186 537.781 75.2005 552.825 79.2531C560.349 81.2801 566.227 83.5926 570.289 86.1651C574.36 88.7436 576.518 91.5239 576.805 94.4628C577.091 97.4017 575.512 100.547 572.017 103.864C568.529 107.174 563.209 110.578 556.219 114.022C542.243 120.908 521.7 127.896 496.09 134.583C444.878 147.955 373.494 160.105 294.079 167.858C214.663 175.611 142.277 177.497 89.4454 174.282C63.0258 172.674 41.5192 169.791 26.4756 165.739C18.9512 163.712 13.0734 161.4 9.01151 158.828C4.94015 156.249 2.78276 153.469 2.49573 150.53Z" stroke="#FFFEFE"/>
<path d="M2.49573 102.575C2.20882 99.6358 3.78791 96.4906 7.28363 93.1734C10.7713 89.8639 16.0908 86.4583 23.0812 83.0142C37.057 76.1286 57.6001 69.1417 83.2099 62.4545C134.422 49.0823 205.807 36.9317 285.222 29.1788C364.637 21.4259 437.023 19.5408 489.855 22.7558C516.274 24.3635 537.781 27.2454 552.825 31.298C560.349 33.325 566.227 35.6375 570.289 38.21C574.36 40.7885 576.518 43.5688 576.805 46.5078C577.091 49.4467 575.512 52.5918 572.017 55.909C568.529 59.2185 563.209 62.6232 556.219 66.0673C542.243 72.9529 521.7 79.9408 496.09 86.6279C444.878 100 373.494 112.15 294.079 119.903C214.663 127.656 142.277 129.542 89.4454 126.327C63.0258 124.719 41.5192 121.836 26.4756 117.784C18.9512 115.756 13.0734 113.445 9.01151 110.872C4.94015 108.294 2.78276 105.514 2.49573 102.575Z" stroke="#FFFEFE"/>
<path d="M1.13061 156.609C1.13061 153.656 3.00782 150.68 6.80932 147.718C10.6021 144.763 16.2273 141.89 23.5193 139.142C38.0979 133.647 59.2227 128.689 85.3611 124.521C137.63 116.188 209.858 111.031 289.65 111.031C369.443 111.031 441.67 116.188 493.939 124.521C520.078 128.689 541.202 133.646 555.781 139.142C563.073 141.89 568.698 144.763 572.491 147.718C576.292 150.68 578.17 153.656 578.17 156.609C578.17 159.562 576.293 162.539 572.491 165.501C568.698 168.456 563.073 171.328 555.781 174.076C541.202 179.571 520.078 184.53 493.939 188.697C441.67 197.03 369.443 202.187 289.65 202.187C209.858 202.187 137.63 197.03 85.3611 188.697C59.2226 184.53 38.0979 179.571 23.5193 174.076C16.2274 171.328 10.6021 168.456 6.80932 165.501C3.00776 162.539 1.13073 159.562 1.13061 156.609Z" stroke="#FFFEFE"/>
<path d="M1.13061 108.653C1.13061 105.7 3.00782 102.724 6.80932 99.7617C10.6021 96.8068 16.2273 93.9341 23.5193 91.1855C38.0979 85.6905 59.2227 80.7326 85.3611 76.5654C137.63 68.2323 209.858 63.0752 289.65 63.0752C369.443 63.0752 441.67 68.2323 493.939 76.5654C520.078 80.7326 541.202 85.6904 555.781 91.1855C563.073 93.9341 568.698 96.8068 572.491 99.7617C576.292 102.724 578.17 105.7 578.17 108.653C578.17 111.606 576.293 114.583 572.491 117.545C568.698 120.5 563.073 123.372 555.781 126.12C541.202 131.615 520.078 136.574 493.939 140.741C441.67 149.074 369.443 154.23 289.65 154.23C209.858 154.23 137.63 149.074 85.3611 140.741C59.2226 136.574 38.0979 131.615 23.5193 126.12C16.2274 123.372 10.6021 120.5 6.80932 117.545C3.00776 114.583 1.13073 111.606 1.13061 108.653Z" stroke="#FFFEFE"/>
<path d="M1.13061 60.6982C1.13061 57.7454 3.00782 54.7685 6.80932 51.8066C10.6021 48.8517 16.2273 45.979 23.5193 43.2305C38.0979 37.7354 59.2227 32.7775 85.3611 28.6103C137.63 20.2773 209.858 15.1201 289.65 15.1201C369.443 15.1201 441.67 20.2772 493.939 28.6103C520.078 32.7775 541.202 37.7354 555.781 43.2304C563.073 45.979 568.698 48.8517 572.491 51.8066C576.292 54.7685 578.17 57.7453 578.17 60.6982C578.17 63.6511 576.293 66.628 572.491 69.5898C568.698 72.5447 563.073 75.4165 555.781 78.165C541.202 83.6601 520.078 88.6189 493.939 92.7861C441.67 101.119 369.443 106.275 289.65 106.275C209.858 106.275 137.63 101.119 85.3611 92.7861C59.2226 88.619 38.0979 83.6601 23.5193 78.165C16.2274 75.4165 10.6021 72.5448 6.80932 69.5898C3.00776 66.628 1.13073 63.6511 1.13061 60.6982Z" stroke="#FFFEFE"/>
<path d="M2.12815 118.541C2.37351 115.598 4.49158 112.787 8.52604 110.152C12.5512 107.522 18.3957 105.127 25.8908 102.994C40.8757 98.7289 62.3393 95.5435 88.7336 93.5626C141.514 89.6015 213.92 90.4636 293.437 97.0937C372.954 103.724 444.503 114.865 495.899 127.512C521.601 133.837 542.24 140.533 556.312 147.22C563.35 150.565 568.717 153.895 572.252 157.155C575.794 160.422 577.417 163.545 577.172 166.488C576.926 169.43 574.808 172.241 570.774 174.877C566.749 177.506 560.904 179.901 553.409 182.034C538.424 186.299 516.961 189.485 490.566 191.466C437.786 195.427 365.38 194.564 285.863 187.934C206.346 181.304 134.797 170.164 83.4011 157.516C57.6993 151.192 37.0597 144.495 22.9881 137.807C15.9498 134.463 10.5825 131.133 7.04841 127.873C3.5061 124.606 1.88292 121.483 2.12815 118.541Z" stroke="#FFFEFE"/>
<path d="M2.12815 70.5847C2.37351 67.642 4.49158 64.8314 8.52604 62.1957C12.5512 59.5661 18.3957 57.1708 25.8908 55.0376C40.8757 50.7729 62.3393 47.5874 88.7336 45.6066C141.514 41.6454 213.92 42.5076 293.437 49.1376C372.954 55.7677 444.503 66.9085 495.899 79.5559C521.601 85.8805 542.24 92.5765 556.312 99.264C563.35 102.609 568.717 105.939 572.252 109.199C575.794 112.466 577.417 115.589 577.172 118.532C576.926 121.474 574.808 124.285 570.774 126.921C566.749 129.55 560.904 131.945 553.409 134.078C538.424 138.342 516.961 141.529 490.566 143.51C437.786 147.471 365.38 146.608 285.863 139.978C206.346 133.348 134.797 122.208 83.4011 109.56C57.6993 103.236 37.0597 96.5388 22.9881 89.8514C15.9498 86.5064 10.5825 83.1772 7.04841 79.9174C3.5061 76.6499 1.88292 73.5273 2.12815 70.5847Z" stroke="#FFFEFE"/>
<path d="M2.12815 22.6296C2.37351 19.6869 4.49158 16.8764 8.52604 14.2406C12.5512 11.611 18.3957 9.21568 25.8908 7.08253C40.8757 2.81781 62.3393 -0.367629 88.7336 -2.34851C141.514 -6.30967 213.92 -5.44751 293.437 1.18256C372.954 7.81263 444.503 18.9534 495.899 31.6008C521.601 37.9254 542.24 44.6214 556.312 51.3089C563.35 54.6538 568.717 57.984 572.252 61.2438C575.794 64.5114 577.417 67.6339 577.172 70.5765C576.926 73.5192 574.808 76.3298 570.774 78.9656C566.749 81.5951 560.904 83.9895 553.409 86.1226C538.424 90.3874 516.961 93.5738 490.566 95.5547C437.786 99.5158 365.38 98.6527 285.863 92.0226C206.346 85.3925 134.797 74.2527 83.4011 61.6053C57.6993 55.2807 37.0597 48.5837 22.9881 41.8963C15.9498 38.5514 10.5825 35.2222 7.04841 31.9623C3.5061 28.6948 1.88292 25.5723 2.12815 22.6296Z" stroke="#FFFEFE"/>
</g>
</g>
<defs>
<clipPath id="clip0_78_220">
<rect width="61" height="222" fill="white"/>
</clipPath>
</defs>
</svg>
