<svg width="1374" height="555" viewBox="0 0 1374 555" fill="none" xmlns="http://www.w3.org/2000/svg">
<path d="M502.315 269.555C504.855 249.199 515.86 233.885 529.052 233.885C544.124 233.885 556.341 253.875 556.341 278.535C556.341 303.194 544.124 323.184 529.052 323.184C515.86 323.184 504.855 307.87 502.315 287.514" stroke="#FFFEFE"/>
<path d="M671.36 269.522C673.908 249.183 684.909 233.885 698.093 233.885C713.164 233.885 725.382 253.875 725.382 278.535C725.382 303.194 713.164 323.184 698.093 323.184C684.909 323.184 673.908 307.886 671.36 287.547" stroke="#FFFEFE"/>
<path d="M986.928 269.643C989.447 249.244 1000.47 233.885 1013.68 233.885C1028.75 233.885 1040.97 253.875 1040.97 278.535C1040.97 303.194 1028.75 323.184 1013.68 323.184C1000.47 323.184 989.447 307.826 986.928 287.426" stroke="#FFFEFE"/>
<path d="M350.317 473.321C297.793 473.321 252.888 417.638 236.957 340.39M350.511 83.7793C297.964 83.7793 252.919 139.49 236.957 216.78M233.893 234.325C232.352 245.056 231.36 256.126 230.966 267.455M230.966 289.634C231.36 300.982 232.352 312.071 233.893 322.819" stroke="#FFFEFE"/>
<path d="M447.441 437.771C407.237 437.771 372.734 397.773 357.945 340.737M447.441 119.243C407.237 119.243 372.734 159.241 357.945 216.277M350.394 269.624C350.803 257.42 352.051 245.582 354.045 234.262M350.394 287.39C350.803 299.594 352.051 311.432 354.045 322.751" stroke="#FFFEFE"/>
<path d="M350.245 455.339C306.152 455.339 268.53 407.775 253.839 340.905M350.245 101.693C306.152 101.693 268.53 149.257 253.839 216.128M247.452 267.198C247.881 255.544 248.968 244.196 250.649 233.263M247.452 289.834C247.881 301.488 248.968 312.836 250.649 323.769" stroke="#FFFEFE"/>
<path d="M447.8 423.148C414.218 423.148 385.234 389.302 371.751 340.365M447.8 133.871C414.381 133.871 385.515 167.389 371.948 215.943M363.852 269.582C364.283 257.395 365.592 245.615 367.672 234.427M363.852 287.437C364.283 299.624 365.592 311.404 367.672 322.591" stroke="#FFFEFE"/>
<path d="M1174.54 422.644C1140.91 422.644 1112.07 389.367 1098.62 340.398M1174.54 133.871C1140.91 133.871 1111.89 167.757 1098.43 216.726" stroke="#FFFEFE"/>
<path d="M1105.2 323.184C1120.27 323.184 1132.49 303.194 1132.49 278.535C1132.49 253.875 1120.27 233.885 1105.2 233.885" stroke="#FFFEFE"/>
<path d="M1084.79 323.184C1099.86 323.184 1112.08 303.194 1112.08 278.535C1112.08 253.875 1099.86 233.885 1084.79 233.885" stroke="#FFFEFE"/>
<path d="M596.186 323.184C611.258 323.184 623.476 303.194 623.476 278.535C623.476 253.875 611.258 233.885 596.186 233.885" stroke="#FFFEFE"/>
<path d="M447.8 323.184C434.593 323.184 423.577 307.835 421.054 287.445M447.8 233.885C434.593 233.885 423.577 249.234 421.054 269.624" stroke="#FFFEFE"/>
<path d="M1173.51 323.184C1160.29 323.184 1149.27 307.812 1146.75 287.399M1173.51 233.885C1160.29 233.885 1149.27 249.257 1146.75 269.67" stroke="#FFFEFE"/>
<path d="M866.117 323.184C881.189 323.184 893.407 303.194 893.407 278.535C893.407 253.875 881.189 233.885 866.117 233.885" stroke="#FFFEFE"/>
<path d="M1311.41 101.696C1265.3 101.696 1226.06 149.196 1210.72 215.94M1311.45 454.931C1265.34 454.931 1226.06 407.426 1210.72 340.673M1207.15 234.561C1205.39 245.925 1204.3 257.728 1203.95 269.849M1203.95 286.785C1204.3 298.902 1205.39 310.7 1207.15 322.059" stroke="#FFFEFE"/>
<path d="M392.197 233.885H968.343M968.343 323.184H392.197" stroke="#FFFEFE"/>
<path d="M8.08813 290.131C9.89274 290.131 11.6079 288.932 12.8977 286.821C14.1821 284.72 14.9924 281.784 14.9924 278.516C14.9924 275.247 14.1822 272.312 12.8977 270.21C11.6079 268.1 9.89272 266.901 8.08813 266.901C6.28369 266.901 4.56926 268.1 3.27954 270.21C1.99505 272.312 1.18391 275.247 1.18384 278.516C1.18384 281.784 1.99506 284.72 3.27954 286.821C4.56929 288.932 6.28357 290.131 8.08813 290.131Z" stroke="#FFFEFE"/>
<path d="M529.052 269.746C532.012 269.746 534.412 273.672 534.412 278.515C534.412 283.359 532.012 287.285 529.052 287.285" stroke="#FFFEFE"/>
<path d="M300.62 266.914C304.536 266.914 307.711 272.109 307.711 278.516C307.711 284.924 304.536 290.118 300.62 290.118" stroke="#FFFEFE"/>
<path d="M698.371 269.746C701.331 269.746 703.731 273.672 703.731 278.515C703.731 283.359 701.331 287.285 698.371 287.285" stroke="#FFFEFE"/>
<path d="M1013.68 269.746C1016.64 269.746 1019.04 273.672 1019.04 278.515C1019.04 283.359 1016.64 287.285 1013.68 287.285" stroke="#FFFEFE"/>
<path d="M1338.99 269.746C1341.95 269.746 1344.35 273.672 1344.35 278.515C1344.35 283.359 1341.95 287.285 1338.99 287.285" stroke="#FFFEFE"/>
<path d="M1338.99 287.285H1131.88M1338.99 269.746H1131.88M622.756 269.746H698.38M622.756 287.285H698.38M530.457 269.746H305.191M530.457 287.285H305.191M892.398 269.746H1014.74M892.398 287.285H1014.74" stroke="#FFFEFE"/>
<path d="M8.08862 233.385C9.32852 233.385 10.5322 232.56 11.4519 231.056C12.3664 229.559 12.948 227.46 12.948 225.115C12.948 222.77 12.3664 220.671 11.4519 219.175C10.5322 217.67 9.32855 216.845 8.08862 216.845C6.84857 216.845 5.64418 217.67 4.72437 219.175C3.80994 220.671 3.22827 222.77 3.22827 225.115C3.22832 227.46 3.80983 229.559 4.72437 231.056C5.64418 232.561 6.84857 233.385 8.08862 233.385Z" stroke="#FFFEFE"/>
<path d="M1338.99 216.345C1341.95 216.345 1344.35 220.272 1344.35 225.115C1344.35 229.958 1341.95 233.885 1338.99 233.885" stroke="#FFFEFE"/>
<path d="M8.08838 233.885H1338.99M1338.99 216.345H8.08838" stroke="#FFFEFE"/>
<path d="M8.08862 340.186C9.32852 340.185 10.5322 339.361 11.4519 337.856C12.3664 336.36 12.948 334.261 12.948 331.916C12.948 329.571 12.3664 327.472 11.4519 325.976C10.5322 324.471 9.32855 323.646 8.08862 323.646C6.84857 323.646 5.64418 324.471 4.72437 325.976C3.80994 327.472 3.22827 329.571 3.22827 331.916C3.22832 334.261 3.80983 336.36 4.72437 337.856C5.64418 339.361 6.84857 340.186 8.08862 340.186Z" stroke="#FFFEFE"/>
<path d="M1338.99 323.146C1341.95 323.146 1344.35 327.072 1344.35 331.916C1344.35 336.759 1341.95 340.686 1338.99 340.686" stroke="#FFFEFE"/>
<path d="M8.08838 340.686H1338.99M1338.99 323.146H8.08838" stroke="#FFFEFE"/>
<path d="M350.245 83.7793H1311.44M1311.44 473.29H350.245" stroke="#FFFEFE"/>
<rect x="350.745" y="83.8174" width="960.191" height="17.8801" stroke="#FFFEFE"/>
<path d="M1150.36 1.3623L1171.68 51.1445H1118.8L1097.48 1.3623H1150.36ZM1096.4 1.3623L1117.71 51.1445H501.839L480.524 1.3623H1096.4ZM479.435 1.3623L500.752 51.1445H447.771L426.457 1.3623H479.435Z" stroke="#FFFEFE"/>
<path d="M1150.36 553.898L1171.68 504.116H1121.73L1100.41 553.898H1150.36ZM1099.32 553.898L1120.64 504.116H499.3L477.985 553.898H1099.32ZM476.896 553.898L498.213 504.116H447.771L426.457 553.898H476.896Z" stroke="#FFFEFE"/>
<rect x="447.941" y="119.263" width="726.099" height="14.6259" stroke="#FFFEFE"/>
<rect x="447.941" y="423.144" width="726.099" height="14.6259" stroke="#FFFEFE"/>
<rect x="350.745" y="455.34" width="960.191" height="17.9811" stroke="#FFFEFE"/>
<path d="M447.441 422.643L447.441 340.475M447.441 134.07V216.663" stroke="#FFFEFE"/>
<path d="M431.317 242.367L424.589 233.505M385.018 181.383L411.753 216.597" stroke="#FFFEFE"/>
<path d="M385.018 375.649L411.617 340.612M431.317 314.664L425.03 322.945" stroke="#FFFEFE"/>
<path d="M421.988 262.238L365.404 250.533" stroke="#FFFEFE"/>
<path d="M365.404 306.828L421.988 295.123" stroke="#FFFEFE"/>
<path d="M1173.51 422.643V341.117M1173.51 134.07L1173.51 216.61" stroke="#FFFEFE"/>
<path d="M1157.38 242.367L1150.76 233.602M1111.94 182.196L1137.86 216.519" stroke="#FFFEFE"/>
<path d="M1111.91 374.519L1137.64 340.655M1157.38 314.664L1150.86 323.256" stroke="#FFFEFE"/>
<path d="M1148.05 262.238L1129.81 258.465" stroke="#FFFEFE"/>
<path d="M1148.05 295.123L1129.64 298.932" stroke="#FFFEFE"/>
<path d="M376.159 170.177L269.15 170.177" stroke="#FFFEFE"/>
<path d="M373.433 175.898L266.668 175.898" stroke="#FFFEFE"/>
<path d="M1226.44 170.177H1173.23" stroke="#FFFEFE"/>
<path d="M1223.61 175.898L1173.51 175.898" stroke="#FFFEFE"/>
<path d="M375.867 386.342L268.631 386.342" stroke="#FFFEFE"/>
<path d="M373.136 380.661L266.144 380.661" stroke="#FFFEFE"/>
<path d="M1226.15 386.342L1176.01 386.342" stroke="#FFFEFE"/>
<path d="M1224.86 380.661L1174.54 380.661" stroke="#FFFEFE"/>
<path d="M352.157 248.975L248.536 248.975" stroke="#FFFEFE"/>
<path d="M351.332 254.655H248.148" stroke="#FFFEFE"/>
<path d="M1205.16 248.975H1153.12" stroke="#FFFEFE"/>
<path d="M1204.73 254.655H1150.82" stroke="#FFFEFE"/>
<path d="M352.157 308.056L248.536 308.056" stroke="#FFFEFE"/>
<path d="M351.332 302.375H248.148" stroke="#FFFEFE"/>
<path d="M1205.16 308.056H1153.1" stroke="#FFFEFE"/>
<path d="M1204.73 302.375H1150.82" stroke="#FFFEFE"/>
<path d="M7.74976 266.885H300.62M300.62 290.108H7.74976" stroke="#FFFEFE"/>
<path d="M426.233 553.911C399.707 553.911 376.238 523.96 358.997 473.017M426.233 1.33594C399.707 1.33594 375.719 32.9247 358.478 83.8676" stroke="#FFFEFE"/>
<path d="M447.799 504.143C433.745 504.143 420.57 493.07 409.228 473.729M447.799 51.1777C433.407 51.1777 419.937 62.7889 408.414 82.9997" stroke="#FFFEFE"/>
<path d="M495.595 504.143C481.54 504.143 468.365 493.07 457.023 473.729M495.595 51.1777C481.203 51.1777 467.733 62.7889 456.209 82.9997" stroke="#FFFEFE"/>
<path d="M534.981 504.143C520.926 504.143 507.751 493.07 496.409 473.729M534.981 51.1777C520.589 51.1777 507.119 62.7889 495.595 82.9997" stroke="#FFFEFE"/>
<path d="M574.367 504.143C560.312 504.143 547.137 493.082 535.795 473.76M574.367 51.6445C559.975 51.6445 546.505 63.2437 534.981 83.4337" stroke="#FFFEFE"/>
<path d="M613.752 504.143C599.698 504.143 586.523 493.082 575.181 473.76M613.752 51.6445C599.36 51.6445 585.89 63.2437 574.366 83.4337" stroke="#FFFEFE"/>
<path d="M653.138 504.143C639.084 504.143 625.909 493.082 614.567 473.76M653.138 51.6445C638.746 51.6445 625.276 63.2437 613.752 83.4337" stroke="#FFFEFE"/>
<path d="M692.524 504.143C678.47 504.143 665.295 493.082 653.952 473.76M692.524 51.6445C678.132 51.6445 664.662 63.2437 653.138 83.4337" stroke="#FFFEFE"/>
<path d="M731.91 504.143C717.856 504.143 704.681 493.082 693.338 473.76M731.91 51.6445C717.518 51.6445 704.048 63.2437 692.524 83.4337" stroke="#FFFEFE"/>
<path d="M771.296 504.143C757.241 504.143 744.066 493.082 732.724 473.76M771.296 51.6445C756.904 51.6445 743.434 63.2437 731.91 83.4337" stroke="#FFFEFE"/>
<path d="M810.682 504.143C796.627 504.143 783.452 493.082 772.11 473.76M810.682 51.6445C796.29 51.6445 782.82 63.2437 771.296 83.4337" stroke="#FFFEFE"/>
<path d="M850.067 504.143C836.013 504.143 822.838 493.082 811.496 473.76M850.067 51.6445C835.675 51.6445 822.206 63.2437 810.682 83.4337" stroke="#FFFEFE"/>
<path d="M889.453 504.143C875.399 504.143 862.224 493.082 850.882 473.76M889.453 51.6445C875.061 51.6445 861.592 63.2437 850.068 83.4337" stroke="#FFFEFE"/>
<path d="M928.839 504.143C914.785 504.143 901.61 493.082 890.268 473.76M928.839 51.6445C914.447 51.6445 900.977 63.2437 889.453 83.4337" stroke="#FFFEFE"/>
<path d="M968.225 504.143C954.171 504.143 940.996 493.082 929.654 473.76M968.225 51.6445C953.833 51.6445 940.363 63.2437 928.839 83.4337" stroke="#FFFEFE"/>
<path d="M1007.61 504.143C993.557 504.143 980.381 493.082 969.039 473.76M1007.61 51.6445C993.219 51.6445 979.749 63.2437 968.225 83.4337" stroke="#FFFEFE"/>
<path d="M1047 504.143C1032.94 504.143 1019.77 493.082 1008.43 473.76M1047 51.6445C1032.6 51.6445 1019.13 63.2437 1007.61 83.4337" stroke="#FFFEFE"/>
<path d="M1125.77 504.143C1111.71 504.143 1098.54 493.082 1087.2 473.76M1125.77 51.6445C1111.38 51.6445 1097.91 63.2437 1086.38 83.4337" stroke="#FFFEFE"/>
<path d="M1086.38 504.143C1072.33 504.143 1059.15 493.082 1047.81 473.76M1086.38 51.6445C1071.99 51.6445 1058.52 63.2437 1047 83.4337" stroke="#FFFEFE"/>
<path d="M1171.94 504.121C1157.68 504.121 1144.82 492.776 1133.31 473.409M1172.43 51.1064C1157.84 51.1064 1144.02 63.312 1132.33 83.5501" stroke="#FFFEFE"/>
<path d="M119.234 267.129V233.841H112.25V267.129M112.25 290.289V323.071H119.234V290.289" stroke="#FFFEFE"/>
<path d="M173.625 267.129V233.841H166.641V267.129M166.641 290.289V323.071H173.625V290.289" stroke="#FFFEFE"/>
<path d="M1280.02 269.709V233.841H1273.04V269.709M1273.04 287.219V323.071H1280.02V287.219" stroke="#FFFEFE"/>
<path d="M350.245 455.339C306.152 455.339 268.53 407.775 253.839 340.905M350.245 101.693C306.152 101.693 268.53 149.257 253.839 216.128M247.452 267.198C247.881 255.544 248.968 244.196 250.649 233.263M247.452 289.834C247.881 301.488 248.968 312.836 250.649 323.769" stroke="#FFFEFE"/>
<path d="M426.893 1.55078L501.205 51.0245L480.203 1.55151L448.003 51.4004" stroke="#FFFEFE" stroke-linejoin="round"/>
<path d="M1097.3 1.55078L1171.61 51.0245L1150.61 1.55151L1118.41 51.4004" stroke="#FFFEFE" stroke-linejoin="round"/>
<path d="M1171.51 504.303L1099.94 553.797L1120.85 504.682L1150.52 553.924" stroke="#FFFEFE" stroke-linejoin="round"/>
<path d="M498.263 504.303L426.692 553.797L447.603 504.682L477.27 553.924" stroke="#FFFEFE" stroke-linejoin="round"/>
<g opacity="0.41" filter="url(#filter0_f_78_5)">
<circle cx="515.288" cy="281.337" r="147.266" fill="#8AA4FF"/>
</g>
<g opacity="0.41" filter="url(#filter1_f_78_5)">
<circle cx="771.296" cy="290.107" r="147.266" fill="#8AA4FF"/>
</g>
<g opacity="0.37" filter="url(#filter2_f_78_5)">
<circle cx="1125.77" cy="281.337" r="147.266" fill="#8AA4FF"/>
</g>
<g style="mix-blend-mode:difference" opacity="0.23">
<ellipse cx="140.86" cy="283.19" rx="44.6342" ry="119.288" fill="#8AA4FF"/>
</g>
<defs>
<filter id="filter0_f_78_5" x="268.021" y="34.0703" width="494.533" height="494.533" filterUnits="userSpaceOnUse" color-interpolation-filters="sRGB">
<feFlood flood-opacity="0" result="BackgroundImageFix"/>
<feBlend mode="normal" in="SourceGraphic" in2="BackgroundImageFix" result="shape"/>
<feGaussianBlur stdDeviation="50" result="effect1_foregroundBlur_78_5"/>
</filter>
<filter id="filter1_f_78_5" x="524.029" y="42.8408" width="494.533" height="494.533" filterUnits="userSpaceOnUse" color-interpolation-filters="sRGB">
<feFlood flood-opacity="0" result="BackgroundImageFix"/>
<feBlend mode="normal" in="SourceGraphic" in2="BackgroundImageFix" result="shape"/>
<feGaussianBlur stdDeviation="50" result="effect1_foregroundBlur_78_5"/>
</filter>
<filter id="filter2_f_78_5" x="878.502" y="34.0703" width="494.533" height="494.533" filterUnits="userSpaceOnUse" color-interpolation-filters="sRGB">
<feFlood flood-opacity="0" result="BackgroundImageFix"/>
<feBlend mode="normal" in="SourceGraphic" in2="BackgroundImageFix" result="shape"/>
<feGaussianBlur stdDeviation="50" result="effect1_foregroundBlur_78_5"/>
</filter>
</defs>
</svg>
