<svg width="484" height="63" viewBox="0 0 484 63" fill="none" xmlns="http://www.w3.org/2000/svg">
<rect x="242" y="21.1978" width="14.2075" height="21.3112" fill="#272727"/>
<rect width="14.2075" height="18.986" transform="matrix(-1 0 0 1 326.802 34.4419)" fill="#272727"/>
<rect width="14.2075" height="14.2075" transform="matrix(-1 0 0 1 269.972 34.4419)" fill="#272727"/>
<rect width="14.2075" height="14.2075" transform="matrix(-1 0 0 1 308.222 34.4419)" fill="#272727"/>
<rect width="14.2075" height="18.986" transform="matrix(-1 0 0 1 289.097 34.4419)" fill="#272727"/>
<rect x="255.764" y="13.1307" width="14.2075" height="14.2075" fill="#272727"/>
<rect x="269.971" y="6.02698" width="14.2075" height="14.2075" fill="#272727"/>
<rect x="284.179" width="14.2075" height="20.2344" fill="#272727"/>
<rect x="298.387" y="6.02692" width="14.2075" height="14.2075" fill="#272727"/>
<rect x="312.594" y="12.1673" width="14.2075" height="14.2075" fill="#272727"/>
<rect x="255.764" y="20.2344" width="71.0375" height="21.3112" fill="#272727"/>
<rect width="3.78656" height="3.78656" transform="matrix(-1 0 0 1 321.591 53.4279)" fill="#272727" stroke="#272727"/>
<rect width="3.78656" height="3.78656" transform="matrix(-1 0 0 1 326.358 58.2065)" fill="#272727" stroke="#272727"/>
<rect width="3.78656" height="3.78656" transform="matrix(-1 0 0 1 330.588 58.2065)" fill="#272727" stroke="#272727"/>
<rect width="3.78656" height="3.78656" transform="matrix(-1 0 0 1 303.011 48.6494)" fill="#272727" stroke="#272727"/>
<rect width="3.78656" height="3.78656" transform="matrix(-1 0 0 1 307.778 53.4279)" fill="#272727" stroke="#272727"/>
<rect width="3.78656" height="3.78656" transform="matrix(-1 0 0 1 283.886 53.4279)" fill="#272727" stroke="#272727"/>
<rect width="3.78656" height="3.78656" transform="matrix(-1 0 0 1 288.653 58.2065)" fill="#272727" stroke="#272727"/>
<rect width="3.78656" height="3.78656" transform="matrix(-1 0 0 1 292.44 58.2065)" fill="#272727" stroke="#272727"/>
<rect width="3.78656" height="3.78656" transform="matrix(-1 0 0 1 264.761 48.6494)" fill="#272727" stroke="#272727"/>
<rect width="3.78656" height="3.78656" transform="matrix(-1 0 0 1 269.562 53.4279)" fill="#272727" stroke="#272727"/>
<circle cx="341.529" cy="26.3748" r="15.1708" transform="rotate(45 341.529 26.3748)" fill="#272727"/>
<path d="M341.029 41.3621C341.029 41.6382 341.253 41.8621 341.529 41.8621C341.805 41.8621 342.029 41.6382 342.029 41.3621L341.029 41.3621ZM326.542 26.3748L326.542 26.8748L356.516 26.8748L356.516 26.3748L356.516 25.8748L326.542 25.8748L326.542 26.3748ZM341.529 41.3621L342.029 41.3621L342.029 11.3875L341.529 11.3875L341.029 11.3875L341.029 41.3621L341.529 41.3621Z" fill="#FFFEFE"/>
<circle cx="341.843" cy="26.6884" r="6.75715" transform="rotate(45 341.843 26.6884)" fill="#272727" stroke="#FFFEFE"/>
<circle cx="341.529" cy="20.4946" r="1.05558" transform="rotate(45 341.529 20.4946)" fill="#FFFEFE"/>
<circle cx="341.529" cy="32.9491" r="1.05558" transform="rotate(45 341.529 32.9491)" fill="#FFFEFE"/>
<circle cx="348.046" cy="26.3748" r="1.05558" transform="rotate(45 348.046 26.3748)" fill="#FFFEFE"/>
<circle cx="335.615" cy="26.3748" r="1.05558" transform="rotate(45 335.615 26.3748)" fill="#FFFEFE"/>
<circle cx="338.601" cy="21.7272" r="1.05558" transform="rotate(45 338.601 21.7272)" fill="#FFFEFE"/>
<circle cx="1.05558" cy="1.05558" r="1.05558" transform="matrix(0.707107 -0.707107 -0.707107 -0.707107 338.601 33.1559)" fill="#FFFEFE"/>
<circle cx="1.05558" cy="1.05558" r="1.05558" transform="matrix(-0.707107 0.707107 0.707107 0.707107 344.776 19.7694)" fill="#FFFEFE"/>
<circle cx="344.776" cy="32.1281" r="1.05558" transform="rotate(-135 344.776 32.1281)" fill="#FFFEFE"/>
<circle cx="336.597" cy="23.7549" r="1.05558" transform="rotate(45 336.597 23.7549)" fill="#FFFEFE"/>
<circle cx="1.05558" cy="1.05558" r="1.05558" transform="matrix(0.707107 -0.707107 -0.707107 -0.707107 336.597 30.8532)" fill="#FFFEFE"/>
<circle cx="1.05558" cy="1.05558" r="1.05558" transform="matrix(-0.707107 0.707107 0.707107 0.707107 347.039 21.8964)" fill="#FFFEFE"/>
<circle cx="347.364" cy="29.3972" r="1.05558" transform="rotate(-135 347.364 29.3972)" fill="#FFFEFE"/>
<rect y="21.1978" width="14.2075" height="21.3112" fill="#272727"/>
<rect width="14.2075" height="18.986" transform="matrix(-1 0 0 1 84.8018 34.4419)" fill="#272727"/>
<rect width="14.2075" height="14.2075" transform="matrix(-1 0 0 1 27.9717 34.4419)" fill="#272727"/>
<rect width="14.2075" height="14.2075" transform="matrix(-1 0 0 1 66.2217 34.4419)" fill="#272727"/>
<rect width="14.2075" height="18.986" transform="matrix(-1 0 0 1 47.0967 34.4419)" fill="#272727"/>
<rect x="13.764" y="13.1307" width="14.2075" height="14.2075" fill="#272727"/>
<rect x="27.9714" y="6.02698" width="14.2075" height="14.2075" fill="#272727"/>
<rect x="42.1792" width="14.2075" height="20.2344" fill="#272727"/>
<rect x="56.3867" y="6.02692" width="14.2075" height="14.2075" fill="#272727"/>
<rect x="70.5942" y="12.1673" width="14.2075" height="14.2075" fill="#272727"/>
<rect x="13.7642" y="20.2344" width="71.0375" height="21.3112" fill="#272727"/>
<rect width="3.78656" height="3.78656" transform="matrix(-1 0 0 1 79.5914 53.4279)" fill="#272727" stroke="#272727"/>
<rect width="3.78656" height="3.78656" transform="matrix(-1 0 0 1 84.3584 58.2065)" fill="#272727" stroke="#272727"/>
<rect width="3.78656" height="3.78656" transform="matrix(-1 0 0 1 88.5884 58.2065)" fill="#272727" stroke="#272727"/>
<rect width="3.78656" height="3.78656" transform="matrix(-1 0 0 1 61.0114 48.6494)" fill="#272727" stroke="#272727"/>
<rect width="3.78656" height="3.78656" transform="matrix(-1 0 0 1 65.7783 53.4279)" fill="#272727" stroke="#272727"/>
<rect width="3.78656" height="3.78656" transform="matrix(-1 0 0 1 41.8864 53.4279)" fill="#272727" stroke="#272727"/>
<rect width="3.78656" height="3.78656" transform="matrix(-1 0 0 1 46.6533 58.2065)" fill="#272727" stroke="#272727"/>
<rect width="3.78656" height="3.78656" transform="matrix(-1 0 0 1 50.4399 58.2065)" fill="#272727" stroke="#272727"/>
<rect width="3.78656" height="3.78656" transform="matrix(-1 0 0 1 22.7614 48.6494)" fill="#272727" stroke="#272727"/>
<rect width="3.78656" height="3.78656" transform="matrix(-1 0 0 1 27.5624 53.4279)" fill="#272727" stroke="#272727"/>
<circle cx="99.5292" cy="26.3748" r="15.1708" transform="rotate(45 99.5292 26.3748)" fill="#272727"/>
<path d="M99.0292 41.3621C99.0292 41.6382 99.253 41.8621 99.5292 41.8621C99.8053 41.8621 100.029 41.6382 100.029 41.3621L99.0292 41.3621ZM84.5419 26.3748L84.5419 26.8748L114.516 26.8748L114.516 26.3748L114.516 25.8748L84.5419 25.8748L84.5419 26.3748ZM99.5292 41.3621L100.029 41.3621L100.029 11.3875L99.5292 11.3875L99.0292 11.3875L99.0292 41.3621L99.5292 41.3621Z" fill="#FFFEFE"/>
<circle cx="99.5292" cy="26.6884" r="6.23182" transform="rotate(45 99.5292 26.6884)" fill="#272727" stroke="#FFFEFE"/>
<circle cx="99.5292" cy="26.6884" r="2.7383" transform="rotate(45 99.5292 26.6884)" fill="#272727" stroke="#FFFEFE"/>
<rect x="363" y="21.1978" width="14.2075" height="21.3112" fill="#272727"/>
<rect x="376.764" y="13.1307" width="14.2075" height="14.2075" fill="#272727"/>
<rect x="390.971" y="6.02698" width="14.2075" height="14.2075" fill="#272727"/>
<rect x="405.179" width="14.2075" height="20.2344" fill="#272727"/>
<rect x="419.387" y="6.02692" width="14.2075" height="14.2075" fill="#272727"/>
<rect x="433.594" y="12.1673" width="14.2075" height="14.2075" fill="#272727"/>
<rect x="376.764" y="20.2344" width="71.0375" height="21.3112" fill="#272727"/>
<rect width="14.2075" height="14.2075" transform="matrix(-1 0 0 1 410.097 34.4419)" fill="#272727"/>
<rect width="3.78656" height="3.78656" transform="matrix(-1 0 0 1 404.887 48.6494)" fill="#272727" stroke="#272727"/>
<rect width="3.78656" height="3.78656" transform="matrix(-1 0 0 1 409.654 53.4279)" fill="#272727" stroke="#272727"/>
<rect width="14.2075" height="14.2075" transform="matrix(-1 0 0 1 447.802 34.4419)" fill="#272727"/>
<rect width="3.78656" height="3.78656" transform="matrix(-1 0 0 1 442.591 48.6494)" fill="#272727" stroke="#272727"/>
<rect width="3.78656" height="3.78656" transform="matrix(-1 0 0 1 447.358 53.4279)" fill="#272727" stroke="#272727"/>
<rect width="14.2075" height="18.986" transform="matrix(-1 0 0 1 390.971 34.8738)" fill="#272727"/>
<rect width="3.78656" height="3.78656" transform="matrix(-1 0 0 1 385.761 53.8598)" fill="#272727" stroke="#272727"/>
<rect width="3.78656" height="3.78656" transform="matrix(-1 0 0 1 390.528 58.6384)" fill="#272727" stroke="#272727"/>
<rect width="3.78656" height="3.78656" transform="matrix(-1 0 0 1 394.315 58.6384)" fill="#272727" stroke="#272727"/>
<rect width="14.2075" height="18.986" transform="matrix(-1 0 0 1 429.222 34.8738)" fill="#272727"/>
<rect width="3.78656" height="3.78656" transform="matrix(-1 0 0 1 424.011 53.8598)" fill="#272727" stroke="#272727"/>
<rect width="3.78656" height="3.78656" transform="matrix(-1 0 0 1 428.778 58.6384)" fill="#272727" stroke="#272727"/>
<rect width="3.78656" height="3.78656" transform="matrix(-1 0 0 1 432.565 58.6384)" fill="#272727" stroke="#272727"/>
<circle cx="462.529" cy="26.3748" r="15.1708" transform="rotate(45 462.529 26.3748)" fill="#272727"/>
<path d="M462.029 41.3621C462.029 41.6382 462.253 41.8621 462.529 41.8621C462.805 41.8621 463.029 41.6382 463.029 41.3621L462.029 41.3621ZM447.542 26.3748L447.542 26.8748L477.516 26.8748L477.516 26.3748L477.516 25.8748L447.542 25.8748L447.542 26.3748ZM462.529 41.3621L463.029 41.3621L463.029 11.3875L462.529 11.3875L462.029 11.3875L462.029 41.3621L462.529 41.3621Z" fill="#FFFEFE"/>
<circle cx="462.843" cy="26.6884" r="6.75715" transform="rotate(45 462.843 26.6884)" fill="#272727" stroke="#FFFEFE"/>
<circle cx="462.529" cy="20.4946" r="1.05558" transform="rotate(45 462.529 20.4946)" fill="#FFFEFE"/>
<circle cx="462.529" cy="32.9491" r="1.05558" transform="rotate(45 462.529 32.9491)" fill="#FFFEFE"/>
<circle cx="469.046" cy="26.3748" r="1.05558" transform="rotate(45 469.046 26.3748)" fill="#FFFEFE"/>
<circle cx="456.615" cy="26.3748" r="1.05558" transform="rotate(45 456.615 26.3748)" fill="#FFFEFE"/>
<circle cx="459.601" cy="21.7272" r="1.05558" transform="rotate(45 459.601 21.7272)" fill="#FFFEFE"/>
<circle cx="1.05558" cy="1.05558" r="1.05558" transform="matrix(0.707107 -0.707107 -0.707107 -0.707107 459.601 33.1559)" fill="#FFFEFE"/>
<circle cx="1.05558" cy="1.05558" r="1.05558" transform="matrix(-0.707107 0.707107 0.707107 0.707107 465.776 19.7694)" fill="#FFFEFE"/>
<circle cx="465.776" cy="32.1281" r="1.05558" transform="rotate(-135 465.776 32.1281)" fill="#FFFEFE"/>
<circle cx="457.597" cy="23.7549" r="1.05558" transform="rotate(45 457.597 23.7549)" fill="#FFFEFE"/>
<circle cx="1.05558" cy="1.05558" r="1.05558" transform="matrix(0.707107 -0.707107 -0.707107 -0.707107 457.597 30.8532)" fill="#FFFEFE"/>
<circle cx="1.05558" cy="1.05558" r="1.05558" transform="matrix(-0.707107 0.707107 0.707107 0.707107 468.039 21.8964)" fill="#FFFEFE"/>
<circle cx="468.364" cy="29.3972" r="1.05558" transform="rotate(-135 468.364 29.3972)" fill="#FFFEFE"/>
<rect x="121" y="21.1978" width="14.2075" height="21.3112" fill="#272727"/>
<rect x="134.764" y="13.1307" width="14.2075" height="14.2075" fill="#272727"/>
<rect x="148.971" y="6.02698" width="14.2075" height="14.2075" fill="#272727"/>
<rect x="163.179" width="14.2075" height="20.2344" fill="#272727"/>
<rect x="177.387" y="6.02692" width="14.2075" height="14.2075" fill="#272727"/>
<rect x="191.594" y="12.1673" width="14.2075" height="14.2075" fill="#272727"/>
<rect x="134.764" y="20.2344" width="71.0375" height="21.3112" fill="#272727"/>
<rect width="14.2075" height="14.2075" transform="matrix(-1 0 0 1 168.097 34.4419)" fill="#272727"/>
<rect width="3.78656" height="3.78656" transform="matrix(-1 0 0 1 162.887 48.6494)" fill="#272727" stroke="#272727"/>
<rect width="3.78656" height="3.78656" transform="matrix(-1 0 0 1 167.654 53.4279)" fill="#272727" stroke="#272727"/>
<rect width="14.2075" height="14.2075" transform="matrix(-1 0 0 1 205.802 34.4419)" fill="#272727"/>
<rect width="3.78656" height="3.78656" transform="matrix(-1 0 0 1 200.591 48.6494)" fill="#272727" stroke="#272727"/>
<rect width="3.78656" height="3.78656" transform="matrix(-1 0 0 1 205.358 53.4279)" fill="#272727" stroke="#272727"/>
<rect width="14.2075" height="18.986" transform="matrix(-1 0 0 1 148.971 34.8738)" fill="#272727"/>
<rect width="3.78656" height="3.78656" transform="matrix(-1 0 0 1 143.761 53.8598)" fill="#272727" stroke="#272727"/>
<rect width="3.78656" height="3.78656" transform="matrix(-1 0 0 1 148.528 58.6384)" fill="#272727" stroke="#272727"/>
<rect width="3.78656" height="3.78656" transform="matrix(-1 0 0 1 152.315 58.6384)" fill="#272727" stroke="#272727"/>
<rect width="14.2075" height="18.986" transform="matrix(-1 0 0 1 187.222 34.8738)" fill="#272727"/>
<rect width="3.78656" height="3.78656" transform="matrix(-1 0 0 1 182.011 53.8598)" fill="#272727" stroke="#272727"/>
<rect width="3.78656" height="3.78656" transform="matrix(-1 0 0 1 186.778 58.6384)" fill="#272727" stroke="#272727"/>
<rect width="3.78656" height="3.78656" transform="matrix(-1 0 0 1 190.565 58.6384)" fill="#272727" stroke="#272727"/>
<circle cx="220.529" cy="26.3748" r="15.1708" transform="rotate(45 220.529 26.3748)" fill="#272727"/>
<path d="M220.029 41.3621C220.029 41.6382 220.253 41.8621 220.529 41.8621C220.805 41.8621 221.029 41.6382 221.029 41.3621L220.029 41.3621ZM205.542 26.3748L205.542 26.8748L235.516 26.8748L235.516 26.3748L235.516 25.8748L205.542 25.8748L205.542 26.3748ZM220.529 41.3621L221.029 41.3621L221.029 11.3875L220.529 11.3875L220.029 11.3875L220.029 41.3621L220.529 41.3621Z" fill="#FFFEFE"/>
<circle cx="220.266" cy="26.6884" r="6.23182" transform="rotate(45 220.266 26.6884)" fill="#272727" stroke="#FFFEFE"/>
<circle cx="220.266" cy="26.6884" r="2.7383" transform="rotate(45 220.266 26.6884)" fill="#272727" stroke="#FFFEFE"/>
</svg>
